<svg id="Flat" height="512" viewBox="0 0 512 512" width="512" xmlns="http://www.w3.org/2000/svg"><path d="m312 424h-32l-80-400h32z" fill="#f7cc38"/><g fill="#eb423f"><path d="m209.391 70.957 8 40 27.826-20.87-8-40z"/><path d="m271.72 222.62-27.58 22.07-8-40 27.58-22.07z"/><path d="m260.138 324.69 27.586-22.069-7.953-39.764-27.428 22.857z"/><path d="m276.138 404.69 27.586-22.069-8-40-27.586 22.069z"/></g><path d="m168 168h208v32h-208z" fill="#c4cca3"/><path d="m360 136h-24a16 16 0 0 0 0-32h-24l-24-32-24 32h-56a16 16 0 0 0 0 32h-24a16 16 0 0 0 0 32h176a16 16 0 0 0 0-32z" fill="#cfdb8c"/><path d="m416 248h-48v32h48a32.036 32.036 0 0 1 32 32v48a32.036 32.036 0 0 1 -32 32h-48v32h48a64 64 0 0 0 64-64v-48a64 64 0 0 0 -64-64z" fill="#c3c6c7"/><path d="m368 228.438v-28.438h-192v28.438a31.863 31.863 0 0 0 -16 27.562v200a32 32 0 0 0 32 32h160a32 32 0 0 0 32-32v-200a31.863 31.863 0 0 0 -16-27.562z" fill="#cfdb8c"/><path d="m166.915 315a55.974 55.974 0 0 0 1.073-9.82c.631-30.467-24.606-56.684-55.076-57.169a56.026 56.026 0 0 0 -55.988 66.152c3.076 16.664-.144 33.637-10.019 47.41a79.621 79.621 0 0 0 -14.413 55.416c4 36.636 33.751 66.451 70.382 70.505a79.963 79.963 0 0 0 75.649-123.863c-9.642-14.376-15.006-31.662-11.608-48.631z" fill="#8f9e46"/><path d="m112 256a8 8 0 0 1 -8-7.991 78.143 78.143 0 0 0 -3.69-21.779c-6.194-18.23-16.819-18.23-20.31-18.23a8 8 0 0 1 0-16c31.64 0 40 36.631 40 56a8 8 0 0 1 -8 8z" fill="#95573a"/><ellipse cx="168" cy="420" fill="#95573a" rx="32" ry="28"/><path d="m240 424c0 35.346-32.235 64-72 64s-72-28.654-72-64z" fill="#b1bd70"/><path d="m256.889 144h-49.778c-3.927 0-7.111-3.582-7.111-8s3.184-8 7.111-8h49.778c3.927 0 7.111 3.582 7.111 8s-3.184 8-7.111 8z" fill="#b1bd70"/><path d="m344 144h-40a8 8 0 0 1 0-16h40a8 8 0 0 1 0 16z" fill="#b1bd70"/></svg>