<svg id="Flat" height="512" viewBox="0 0 512 512" width="512" xmlns="http://www.w3.org/2000/svg"><path d="m344 72h-176s-24 40-24 82.947c0 69.053 48 101.053 48 301.053v32h128v-32c0-200 48-232 48-301.053 0-42.947-24-82.947-24-82.947z" fill="#f7cc38"/><path d="m192 456h128v32h-128z" fill="#e6be34"/><path d="m344 72a31.838 31.838 0 0 0 -48.526-27.276 47.956 47.956 0 0 0 -78.948 0 31.838 31.838 0 0 0 -48.526 27.276 198.292 198.292 0 0 0 -19.31 48h214.62a198.292 198.292 0 0 0 -19.31-48z" fill="#fbe36a"/><path d="m363.31 120h-214.62a198.292 198.292 0 0 1 19.31-48h176a198.292 198.292 0 0 1 19.31 48z" fill="#ebd359"/><circle cx="288" cy="168" fill="#fbe36a" r="16"/><circle cx="216" cy="232" fill="#fbe36a" r="16"/><g fill="#d4a811"><circle cx="184" cy="184" r="8"/><circle cx="232" cy="152" r="8"/><circle cx="264" cy="304" r="8"/><circle cx="320" cy="216" r="8"/></g></svg>