<svg id="Flat" height="512" viewBox="0 0 512 512" width="512" xmlns="http://www.w3.org/2000/svg"><path d="m152 120c-53.019 0-96 53.726-96 120s42.981 120 96 120 96-53.726 96-120-42.981-120-96-120zm0 208c-35.346 0-64-39.4-64-88s28.654-88 64-88 64 39.4 64 88-28.654 88-64 88z" fill="#c3c6c7"/><path d="m304 488h72a32 32 0 0 0 32-32s48-48 48-136c0-80-88-152-88-216 0-56 64-80 64-80h-224s32 48 32 80c0 64-88 136-88 216 0 88 48 136 48 136a32 32 0 0 0 32 32z" fill="#dcdee0"/><path d="m456 320c0 44-12 78-24 101s-24 35-24 35h-208s-48-48-48-136c0-66.94 61.6-128.27 81.72-184h140.56c20.12 55.73 81.72 117.06 81.72 184z" fill="#6ed2f0"/><path d="m401.941 318.059-67.882 67.882a48 48 0 1 0 67.882-67.882z" fill="#fbe36a"/><path d="m416 352a47.893 47.893 0 0 1 -.67 8 47.416 47.416 0 0 1 -8.38 20.05 48.18 48.18 0 0 1 -10.9 10.9 47.416 47.416 0 0 1 -20.05 8.38 47.991 47.991 0 0 1 -41.94-13.39l67.88-67.88a47.969 47.969 0 0 1 14.06 33.94z" fill="#f7cc38"/><path d="m408 456a32 32 0 0 1 -32 32h-144a31.991 31.991 0 0 1 -32-32z" fill="#dcdee0"/><path d="m368 104c0 10.45 2.35 21.12 6.28 32h-140.56c3.93-10.88 6.28-21.55 6.28-32 0-32-32-80-32-80h224s-64 24-64 80z" fill="#dcdee0"/><circle cx="352" cy="224" fill="#248cab" r="16"/><g fill="#ed6f6d"><circle cx="280" cy="344" r="8"/><circle cx="320" cy="424" r="8"/><circle cx="408" cy="280" r="8"/><circle cx="240" cy="224" r="8"/><circle cx="272" cy="264" r="8"/><circle cx="304" cy="184" r="8"/></g><path d="m224 280a40 40 0 0 0 0 80z" fill="#fbe36a"/><path d="m224 280a40 40 0 0 0 0 80z" fill="#fbe36a"/><path d="m224 280v80a40 40 0 0 1 0-80z" fill="#f7cc38"/><path d="m224 310v20l-26.54 19.91a39.72 39.72 0 0 1 -9.61-12.79l22.82-17.12-22.82-17.12a39.72 39.72 0 0 1 9.61-12.79z" fill="#d4a811"/><path d="m240 392h16a16 16 0 0 1 16 16v16a0 0 0 0 1 0 0h-16a16 16 0 0 1 -16-16v-16a0 0 0 0 1 0 0z" fill="#2e9163"/><path d="m328 296h16a0 0 0 0 1 0 0v16a16 16 0 0 1 -16 16h-16a0 0 0 0 1 0 0v-16a16 16 0 0 1 16-16z" fill="#2e9163" transform="matrix(-1 0 0 -1 656 624)"/><path d="m415.33 360h-28.02l18.35 18.34a7.537 7.537 0 0 1 1.29 1.71 48.18 48.18 0 0 1 -10.9 10.9 7.764 7.764 0 0 1 -1.71-1.29l-18.34-18.35v28.02a48.1 48.1 0 0 1 -16 0v-39.33l16-16h39.33a48.1 48.1 0 0 1 0 16z" fill="#d4a811"/></svg>