<svg id="Flat" height="512" viewBox="0 0 512 512" width="512" xmlns="http://www.w3.org/2000/svg"><path d="m312 328v64c0 24 24 32 24 32v32h80v-32s24-8 24-32v-64z" fill="#596063"/><path d="m24 456h464v32h-464z" fill="#ad6643"/><path d="m264 312c0-92.376-27.8-170.643-66.26-197.774a79.977 79.977 0 0 0 50.26-74.226h-160a79.977 79.977 0 0 0 50.26 74.226c-38.46 27.131-66.26 105.398-66.26 197.774 0 55.908 10.2 106.624 26.763 144h138.474c16.563-37.376 26.763-88.092 26.763-144z" fill="#dcdee0"/><g fill="#414649"><path d="m251.14 208h-166.28a281.158 281.158 0 0 1 10.52-32h145.24a281.158 281.158 0 0 1 10.52 32z"/><path d="m259.36 376c-1.66 11.11-3.74 21.8-6.2 32h-170.32c-2.46-10.2-4.54-20.89-6.2-32z"/><path d="m336 424h80v16h-80z"/></g></svg>