<svg id="Flat" height="512" viewBox="0 0 512 512" width="512" xmlns="http://www.w3.org/2000/svg"><path d="m264 488h-144s-40-135.941-40-232a330.1 330.1 0 0 1 8-72h208a330.1 330.1 0 0 1 8 72c0 96-40 232-40 232z" fill="#dcdee0"/><path d="m119.989 352.451a8 8 0 0 1 -7.893-6.762c-5.373-34.273-8.096-64.447-8.096-89.689a341.415 341.415 0 0 1 2.545-40.963 8 8 0 0 1 15.884 1.927 325.313 325.313 0 0 0 -2.429 39.036c0 24.413 2.659 53.754 7.9 87.209a8.008 8.008 0 0 1 -7.913 9.241z" fill="#e9eef2"/><path d="m176 24h32a32 32 0 0 1 32 32v48a0 0 0 0 1 0 0h-96a0 0 0 0 1 0 0v-48a32 32 0 0 1 32-32z" fill="#c3c6c7"/><path d="m136 104h112a48 48 0 0 1 48 48v16a0 0 0 0 1 0 0h-208a0 0 0 0 1 0 0v-16a48 48 0 0 1 48-48z" fill="#dcdee0"/><path d="m416 424h-48l-16-80h80z" fill="#dcdee0"/><g fill="#c3c6c7"><path d="m432 488h-80l16-64h48z"/><rect height="32" rx="2" width="224" x="80" y="160"/></g></svg>